<svg xmlns="http://www.w3.org/2000/svg" xmlns:xlink="http://www.w3.org/1999/xlink" width="1000" zoomAndPan="magnify" viewBox="0 0 750 749.999995" height="1000" preserveAspectRatio="xMidYMid meet" version="1.0"><defs><g/><clipPath id="a4e12c5130"><path d="M 645.734375 391.328125 L 690.230469 391.328125 L 690.230469 435.824219 L 645.734375 435.824219 Z M 645.734375 391.328125 " clip-rule="nonzero"/></clipPath><clipPath id="54836826c3"><path d="M 0.734375 0.328125 L 45.230469 0.328125 L 45.230469 44.824219 L 0.734375 44.824219 Z M 0.734375 0.328125 " clip-rule="nonzero"/></clipPath><clipPath id="c078c61797"><rect x="0" width="46" y="0" height="45"/></clipPath><clipPath id="a7ae8d0c71"><path d="M 609.472656 30 L 720 30 L 720 140.527344 L 609.472656 140.527344 Z M 609.472656 30 " clip-rule="nonzero"/></clipPath><clipPath id="4b08b04d29"><path d="M 0.472656 0 L 111 0 L 111 110.527344 L 0.472656 110.527344 Z M 0.472656 0 " clip-rule="nonzero"/></clipPath><clipPath id="ab6582434e"><rect x="0" width="111" y="0" height="111"/></clipPath></defs><rect x="-75" width="900" fill="#ffffff" y="-74.999999" height="899.999994" fill-opacity="1"/><rect x="-75" width="900" fill="#000000" y="-74.999999" height="899.999994" fill-opacity="1"/><g fill="#ffffff" fill-opacity="1"><g transform="translate(59.768901, 434.624999)"><g><path d="M 76.640625 -103.796875 C 77.140625 -104.585938 77.835938 -104.984375 78.734375 -104.984375 L 96.296875 -104.984375 C 96.796875 -104.984375 97.21875 -104.804688 97.5625 -104.453125 C 97.914062 -104.109375 98.09375 -103.6875 98.09375 -103.1875 L 98.09375 -1.796875 C 98.09375 -1.296875 97.914062 -0.867188 97.5625 -0.515625 C 97.21875 -0.171875 96.796875 0 96.296875 0 L 78.734375 0 C 78.234375 0 77.804688 -0.171875 77.453125 -0.515625 C 77.109375 -0.867188 76.9375 -1.296875 76.9375 -1.796875 L 76.9375 -67.9375 C 76.9375 -68.34375 76.835938 -68.546875 76.640625 -68.546875 C 76.441406 -68.546875 76.242188 -68.394531 76.046875 -68.09375 L 60.140625 -43.203125 C 59.640625 -42.398438 58.941406 -42 58.046875 -42 L 49.1875 -42 C 48.289062 -42 47.59375 -42.398438 47.09375 -43.203125 L 31.203125 -68.09375 C 30.992188 -68.394531 30.789062 -68.519531 30.59375 -68.46875 C 30.394531 -68.414062 30.296875 -68.191406 30.296875 -67.796875 L 30.296875 -1.796875 C 30.296875 -1.296875 30.117188 -0.867188 29.765625 -0.515625 C 29.421875 -0.171875 29 0 28.5 0 L 10.953125 0 C 10.453125 0 10.023438 -0.171875 9.671875 -0.515625 C 9.328125 -0.867188 9.15625 -1.296875 9.15625 -1.796875 L 9.15625 -103.1875 C 9.15625 -103.6875 9.328125 -104.109375 9.671875 -104.453125 C 10.023438 -104.804688 10.453125 -104.984375 10.953125 -104.984375 L 28.5 -104.984375 C 29.394531 -104.984375 30.09375 -104.585938 30.59375 -103.796875 L 53.09375 -68.84375 C 53.394531 -68.238281 53.695312 -68.238281 54 -68.84375 Z M 76.640625 -103.796875 "/></g></g></g><g fill="#ffffff" fill-opacity="1"><g transform="translate(167.002176, 434.624999)"><g><path d="M 46.5 1.65625 C 38.695312 1.65625 31.820312 0.0546875 25.875 -3.140625 C 19.925781 -6.347656 15.300781 -10.828125 12 -16.578125 C 8.695312 -22.328125 7.046875 -28.953125 7.046875 -36.453125 L 7.046875 -68.546875 C 7.046875 -75.941406 8.695312 -82.488281 12 -88.1875 C 15.300781 -93.882812 19.925781 -98.304688 25.875 -101.453125 C 31.820312 -104.609375 38.695312 -106.1875 46.5 -106.1875 C 54.394531 -106.1875 61.316406 -104.609375 67.265625 -101.453125 C 73.210938 -98.304688 77.835938 -93.882812 81.140625 -88.1875 C 84.441406 -82.488281 86.09375 -75.941406 86.09375 -68.546875 L 86.09375 -36.453125 C 86.09375 -28.953125 84.441406 -22.300781 81.140625 -16.5 C 77.835938 -10.695312 73.210938 -6.21875 67.265625 -3.0625 C 61.316406 0.0820312 54.394531 1.65625 46.5 1.65625 Z M 46.5 -16.5 C 52 -16.5 56.445312 -18.25 59.84375 -21.75 C 63.238281 -25.25 64.9375 -29.898438 64.9375 -35.703125 L 64.9375 -68.6875 C 64.9375 -74.488281 63.257812 -79.164062 59.90625 -82.71875 C 56.5625 -86.269531 52.09375 -88.046875 46.5 -88.046875 C 41 -88.046875 36.570312 -86.269531 33.21875 -82.71875 C 29.875 -79.164062 28.203125 -74.488281 28.203125 -68.6875 L 28.203125 -35.703125 C 28.203125 -29.898438 29.875 -25.25 33.21875 -21.75 C 36.570312 -18.25 41 -16.5 46.5 -16.5 Z M 46.5 -16.5 "/></g></g></g><g fill="#ffffff" fill-opacity="1"><g transform="translate(260.137635, 434.624999)"><g><path d="M 66.75 0 C 65.75 0 65.046875 -0.445312 64.640625 -1.34375 L 45.890625 -42.890625 C 45.691406 -43.296875 45.394531 -43.5 45 -43.5 L 31.046875 -43.5 C 30.546875 -43.5 30.296875 -43.25 30.296875 -42.75 L 30.296875 -1.796875 C 30.296875 -1.296875 30.117188 -0.867188 29.765625 -0.515625 C 29.421875 -0.171875 29 0 28.5 0 L 10.953125 0 C 10.453125 0 10.023438 -0.171875 9.671875 -0.515625 C 9.328125 -0.867188 9.15625 -1.296875 9.15625 -1.796875 L 9.15625 -103.1875 C 9.15625 -103.6875 9.328125 -104.109375 9.671875 -104.453125 C 10.023438 -104.804688 10.453125 -104.984375 10.953125 -104.984375 L 53.84375 -104.984375 C 60.238281 -104.984375 65.859375 -103.679688 70.703125 -101.078125 C 75.554688 -98.484375 79.304688 -94.785156 81.953125 -89.984375 C 84.609375 -85.191406 85.9375 -79.644531 85.9375 -73.34375 C 85.9375 -66.539062 84.234375 -60.710938 80.828125 -55.859375 C 77.429688 -51.015625 72.6875 -47.59375 66.59375 -45.59375 C 66.09375 -45.394531 65.941406 -45.046875 66.140625 -44.546875 L 86.546875 -2.09375 C 86.742188 -1.695312 86.84375 -1.398438 86.84375 -1.203125 C 86.84375 -0.398438 86.289062 0 85.1875 0 Z M 31.046875 -86.84375 C 30.546875 -86.84375 30.296875 -86.59375 30.296875 -86.09375 L 30.296875 -60.4375 C 30.296875 -59.9375 30.546875 -59.6875 31.046875 -59.6875 L 50.6875 -59.6875 C 54.894531 -59.6875 58.320312 -60.9375 60.96875 -63.4375 C 63.613281 -65.9375 64.9375 -69.1875 64.9375 -73.1875 C 64.9375 -77.1875 63.613281 -80.460938 60.96875 -83.015625 C 58.320312 -85.566406 54.894531 -86.84375 50.6875 -86.84375 Z M 31.046875 -86.84375 "/></g></g></g><g fill="#ffffff" fill-opacity="1"><g transform="translate(352.223294, 434.624999)"><g><path d="M 46.046875 1.203125 C 38.347656 1.203125 31.546875 -0.34375 25.640625 -3.4375 C 19.742188 -6.539062 15.171875 -10.867188 11.921875 -16.421875 C 8.671875 -21.972656 7.046875 -28.398438 7.046875 -35.703125 L 7.046875 -69.296875 C 7.046875 -76.585938 8.671875 -83.035156 11.921875 -88.640625 C 15.171875 -94.242188 19.742188 -98.566406 25.640625 -101.609375 C 31.546875 -104.660156 38.347656 -106.1875 46.046875 -106.1875 C 53.640625 -106.1875 60.359375 -104.6875 66.203125 -101.6875 C 72.054688 -98.6875 76.609375 -94.609375 79.859375 -89.453125 C 83.109375 -84.304688 84.734375 -78.585938 84.734375 -72.296875 L 84.734375 -71.25 C 84.734375 -70.75 84.554688 -70.320312 84.203125 -69.96875 C 83.859375 -69.613281 83.4375 -69.4375 82.9375 -69.4375 L 65.390625 -69.4375 C 64.890625 -69.4375 64.460938 -69.613281 64.109375 -69.96875 C 63.765625 -70.320312 63.59375 -70.75 63.59375 -71.25 L 63.59375 -71.6875 C 63.59375 -76.289062 61.992188 -80.164062 58.796875 -83.3125 C 55.597656 -86.46875 51.347656 -88.046875 46.046875 -88.046875 C 40.648438 -88.046875 36.328125 -86.367188 33.078125 -83.015625 C 29.828125 -79.660156 28.203125 -75.285156 28.203125 -69.890625 L 28.203125 -35.09375 C 28.203125 -29.695312 29.953125 -25.320312 33.453125 -21.96875 C 36.953125 -18.625 41.398438 -16.953125 46.796875 -16.953125 C 51.992188 -16.953125 56.140625 -18.328125 59.234375 -21.078125 C 62.335938 -23.828125 63.890625 -27.648438 63.890625 -32.546875 L 63.890625 -39.296875 C 63.890625 -39.796875 63.640625 -40.046875 63.140625 -40.046875 L 46.34375 -40.046875 C 45.84375 -40.046875 45.414062 -40.21875 45.0625 -40.5625 C 44.71875 -40.914062 44.546875 -41.34375 44.546875 -41.84375 L 44.546875 -55.640625 C 44.546875 -56.140625 44.71875 -56.5625 45.0625 -56.90625 C 45.414062 -57.257812 45.84375 -57.4375 46.34375 -57.4375 L 82.9375 -57.4375 C 83.4375 -57.4375 83.859375 -57.257812 84.203125 -56.90625 C 84.554688 -56.5625 84.734375 -56.140625 84.734375 -55.640625 L 84.734375 -35.84375 C 84.734375 -28.25 83.132812 -21.648438 79.9375 -16.046875 C 76.738281 -10.453125 72.210938 -6.175781 66.359375 -3.21875 C 60.515625 -0.269531 53.742188 1.203125 46.046875 1.203125 Z M 46.046875 1.203125 "/></g></g></g><g fill="#ffffff" fill-opacity="1"><g transform="translate(444.008979, 434.624999)"><g><path d="M 82.046875 -88.640625 C 82.046875 -88.140625 81.867188 -87.710938 81.515625 -87.359375 C 81.160156 -87.015625 80.734375 -86.84375 80.234375 -86.84375 L 31.046875 -86.84375 C 30.546875 -86.84375 30.296875 -86.59375 30.296875 -86.09375 L 30.296875 -62.84375 C 30.296875 -62.34375 30.546875 -62.09375 31.046875 -62.09375 L 63.296875 -62.09375 C 63.796875 -62.09375 64.21875 -61.914062 64.5625 -61.5625 C 64.914062 -61.21875 65.09375 -60.796875 65.09375 -60.296875 L 65.09375 -45.75 C 65.09375 -45.25 64.914062 -44.820312 64.5625 -44.46875 C 64.21875 -44.125 63.796875 -43.953125 63.296875 -43.953125 L 31.046875 -43.953125 C 30.546875 -43.953125 30.296875 -43.703125 30.296875 -43.203125 L 30.296875 -18.890625 C 30.296875 -18.390625 30.546875 -18.140625 31.046875 -18.140625 L 80.234375 -18.140625 C 80.734375 -18.140625 81.160156 -17.960938 81.515625 -17.609375 C 81.867188 -17.265625 82.046875 -16.84375 82.046875 -16.34375 L 82.046875 -1.796875 C 82.046875 -1.296875 81.867188 -0.867188 81.515625 -0.515625 C 81.160156 -0.171875 80.734375 0 80.234375 0 L 10.953125 0 C 10.453125 0 10.023438 -0.171875 9.671875 -0.515625 C 9.328125 -0.867188 9.15625 -1.296875 9.15625 -1.796875 L 9.15625 -103.1875 C 9.15625 -103.6875 9.328125 -104.109375 9.671875 -104.453125 C 10.023438 -104.804688 10.453125 -104.984375 10.953125 -104.984375 L 80.234375 -104.984375 C 80.734375 -104.984375 81.160156 -104.804688 81.515625 -104.453125 C 81.867188 -104.109375 82.046875 -103.6875 82.046875 -103.1875 Z M 82.046875 -88.640625 "/></g></g></g><g fill="#ffffff" fill-opacity="1"><g transform="translate(531.595324, 434.624999)"><g><path d="M 69.4375 -103.1875 C 69.4375 -103.6875 69.613281 -104.109375 69.96875 -104.453125 C 70.320312 -104.804688 70.75 -104.984375 71.25 -104.984375 L 88.796875 -104.984375 C 89.296875 -104.984375 89.71875 -104.804688 90.0625 -104.453125 C 90.414062 -104.109375 90.59375 -103.6875 90.59375 -103.1875 L 90.59375 -1.796875 C 90.59375 -1.296875 90.414062 -0.867188 90.0625 -0.515625 C 89.71875 -0.171875 89.296875 0 88.796875 0 L 71.84375 0 C 70.84375 0 70.144531 -0.398438 69.75 -1.203125 L 30.890625 -65.390625 C 30.691406 -65.691406 30.492188 -65.816406 30.296875 -65.765625 C 30.097656 -65.710938 30 -65.488281 30 -65.09375 L 30.296875 -1.796875 C 30.296875 -1.296875 30.117188 -0.867188 29.765625 -0.515625 C 29.421875 -0.171875 29 0 28.5 0 L 10.953125 0 C 10.453125 0 10.023438 -0.171875 9.671875 -0.515625 C 9.328125 -0.867188 9.15625 -1.296875 9.15625 -1.796875 L 9.15625 -103.1875 C 9.15625 -103.6875 9.328125 -104.109375 9.671875 -104.453125 C 10.023438 -104.804688 10.453125 -104.984375 10.953125 -104.984375 L 27.890625 -104.984375 C 28.890625 -104.984375 29.59375 -104.585938 30 -103.796875 L 68.6875 -39.890625 C 68.894531 -39.597656 69.097656 -39.472656 69.296875 -39.515625 C 69.492188 -39.566406 69.59375 -39.796875 69.59375 -40.203125 Z M 69.4375 -103.1875 "/></g></g></g><g clip-path="url(#a4e12c5130)"><g transform="matrix(1, 0, 0, 1, 645, 391)"><g clip-path="url(#c078c61797)"><g clip-path="url(#54836826c3)"><path fill="#d8fe56" d="M 0.734375 0.328125 L 45.230469 0.328125 L 45.230469 44.824219 L 0.734375 44.824219 Z M 0.734375 0.328125 " fill-opacity="1" fill-rule="nonzero"/></g></g></g></g><g clip-path="url(#a7ae8d0c71)"><g transform="matrix(1, 0, 0, 1, 609, 30)"><g clip-path="url(#ab6582434e)"><g clip-path="url(#4b08b04d29)"><path fill="#d8fe56" d="M 0.472656 0 L 111 0 L 111 110.527344 L 0.472656 110.527344 Z M 0.472656 0 " fill-opacity="1" fill-rule="nonzero"/></g></g></g></g></svg>