<svg xmlns="http://www.w3.org/2000/svg" viewBox="0 0 1200 820" role="img" aria-labelledby="title desc">
  <title id="title">Abstracte placeholder voor AI personal coach app</title>
  <desc id="desc">Een abstracte visual met mobiele app, coachgesprek en iteratieve ontwikkelloop.</desc>
  <defs>
    <linearGradient id="bg" x1="0" x2="1" y1="0" y2="1">
      <stop offset="0" stop-color="#111827"/>
      <stop offset=".5" stop-color="#164e63"/>
      <stop offset="1" stop-color="#d8fe56"/>
    </linearGradient>
  </defs>
  <rect width="1200" height="820" fill="url(#bg)"/>
  <circle cx="910" cy="180" r="230" fill="#d8fe56" opacity=".16"/>
  <circle cx="215" cy="650" r="280" fill="#9b6fcf" opacity=".24"/>
  <rect x="420" y="90" width="360" height="650" rx="72" fill="#10101a" opacity=".96"/>
  <rect x="452" y="145" width="296" height="520" rx="42" fill="#fff" opacity=".92"/>
  <circle cx="600" cy="250" r="70" fill="#5b2d8e" opacity=".9"/>
  <path d="M566 254l28 28 54-68" fill="none" stroke="#d8fe56" stroke-width="18" stroke-linecap="round" stroke-linejoin="round"/>
  <rect x="500" y="360" width="200" height="20" rx="10" fill="#1d122d" opacity=".58"/>
  <rect x="500" y="405" width="150" height="20" rx="10" fill="#1d122d" opacity=".25"/>
  <rect x="500" y="475" width="92" height="92" rx="24" fill="#d8fe56"/>
  <rect x="612" y="475" width="92" height="92" rx="24" fill="#5b2d8e" opacity=".85"/>
  <g fill="none" stroke="#fff" stroke-width="5" stroke-linecap="round" opacity=".66">
    <path d="M250 250c-76 88-70 220 14 300"/>
    <path d="M238 554l70 0-15-68"/>
    <path d="M950 570c72-94 58-226-34-300"/>
    <path d="M920 264l-68 9 25 64"/>
  </g>
  <text x="80" y="744" fill="#fff" font-family="Arial, sans-serif" font-size="34" font-weight="700" letter-spacing="6" opacity=".78">BUILD · MEASURE · LEARN</text>
</svg>
