<svg xmlns="http://www.w3.org/2000/svg" viewBox="0 0 1200 820" role="img" aria-labelledby="title desc">
  <title id="title">Abstracte placeholder voor retailplatform met spraakinterface</title>
  <desc id="desc">Een abstracte visual met dashboard, API-koppelingen en stemcommando.</desc>
  <defs>
    <linearGradient id="bg" x1="0" x2="1" y1="0" y2="1">
      <stop offset="0" stop-color="#0d1020"/>
      <stop offset=".48" stop-color="#312052"/>
      <stop offset="1" stop-color="#9b6fcf"/>
    </linearGradient>
  </defs>
  <rect width="1200" height="820" fill="url(#bg)"/>
  <circle cx="1030" cy="135" r="210" fill="#d8fe56" opacity=".15"/>
  <circle cx="170" cy="650" r="260" fill="#c850d8" opacity=".18"/>
  <rect x="150" y="120" width="900" height="560" rx="52" fill="#fff" opacity=".9"/>
  <rect x="210" y="190" width="250" height="420" rx="28" fill="#1d122d" opacity=".12"/>
  <rect x="505" y="190" width="430" height="72" rx="26" fill="#1d122d" opacity=".12"/>
  <rect x="505" y="302" width="170" height="130" rx="26" fill="#5b2d8e" opacity=".8"/>
  <rect x="705" y="302" width="230" height="130" rx="26" fill="#d8fe56" opacity=".9"/>
  <rect x="505" y="470" width="430" height="140" rx="26" fill="#1d122d" opacity=".12"/>
  <g fill="#1d122d" opacity=".55">
    <rect x="245" y="230" width="150" height="18" rx="9"/>
    <rect x="245" y="282" width="175" height="18" rx="9"/>
    <rect x="245" y="334" width="118" height="18" rx="9"/>
    <rect x="245" y="386" width="160" height="18" rx="9"/>
  </g>
  <g transform="translate(650 470)">
    <circle cx="70" cy="70" r="58" fill="#1d122d" opacity=".75"/>
    <rect x="58" y="28" width="24" height="78" rx="12" fill="#fff"/>
    <path d="M34 78c6 35 66 35 72 0" fill="none" stroke="#fff" stroke-width="12" stroke-linecap="round"/>
    <path d="M70 114v28" stroke="#fff" stroke-width="12" stroke-linecap="round"/>
  </g>
  <text x="80" y="744" fill="#fff" font-family="Arial, sans-serif" font-size="34" font-weight="700" letter-spacing="6" opacity=".78">VOICE PLATFORM</text>
</svg>
