<svg xmlns="http://www.w3.org/2000/svg" viewBox="0 0 1200 820" role="img" aria-labelledby="title desc">
  <title id="title">Abstracte placeholder voor geautomatiseerd printproces</title>
  <desc id="desc">Een abstracte visual met klantinteractie, logo, proefdruk en controles.</desc>
  <defs>
    <linearGradient id="bg" x1="0" x2="1" y1="0" y2="1">
      <stop offset="0" stop-color="#24102e"/>
      <stop offset=".52" stop-color="#783262"/>
      <stop offset="1" stop-color="#d8fe56"/>
    </linearGradient>
  </defs>
  <rect width="1200" height="820" fill="url(#bg)"/>
  <circle cx="240" cy="170" r="180" fill="#c850d8" opacity=".22"/>
  <circle cx="980" cy="630" r="240" fill="#d8fe56" opacity=".14"/>
  <g transform="translate(185 250)">
    <rect x="0" y="0" width="830" height="310" rx="48" fill="#fff" opacity=".9"/>
    <path d="M190 166c34-64 120-64 154 0 34-64 120-64 154 0" fill="none" stroke="#1d122d" stroke-width="34" stroke-linecap="round"/>
    <circle cx="266" cy="166" r="72" fill="none" stroke="#1d122d" stroke-width="26"/>
    <circle cx="422" cy="166" r="72" fill="none" stroke="#1d122d" stroke-width="26"/>
    <rect x="585" y="72" width="150" height="32" rx="16" fill="#d8fe56"/>
    <rect x="585" y="128" width="190" height="20" rx="10" fill="#1d122d" opacity=".55"/>
    <rect x="585" y="170" width="135" height="20" rx="10" fill="#1d122d" opacity=".25"/>
    <rect x="585" y="218" width="105" height="44" rx="16" fill="#5b2d8e" opacity=".9"/>
  </g>
  <g fill="#fff" opacity=".78">
    <rect x="110" y="130" width="150" height="58" rx="20"/>
    <rect x="930" y="145" width="170" height="58" rx="20"/>
    <rect x="94" y="650" width="210" height="58" rx="20"/>
    <rect x="770" y="630" width="240" height="58" rx="20"/>
  </g>
  <g fill="none" stroke="#fff" stroke-width="4" stroke-dasharray="10 18" opacity=".5">
    <path d="M260 160C390 110 490 115 610 250"/>
    <path d="M930 175C800 130 710 145 610 250"/>
    <path d="M300 680C460 710 570 660 610 560"/>
    <path d="M790 660C690 680 625 630 610 560"/>
  </g>
  <text x="80" y="744" fill="#fff" font-family="Arial, sans-serif" font-size="34" font-weight="700" letter-spacing="6" opacity=".78">PRINTFLOW</text>
</svg>
